HIERARCHY
ROOT Hips
{
	OFFSET 0.000000 0.000000 0.000000
	CHANNELS 6 Xposition Yposition Zposition Zrotation Yrotation Xrotation 
	JOINT LHipJoint
	{
		OFFSET 0.000000 0.000000 0.000000
		CHANNELS 3 Zrotation Yrotation Xrotation
		JOINT LeftUpLeg
		{
			OFFSET 1.363060 -1.794630 0.839290
			CHANNELS 3 Zrotation Yrotation Xrotation
			JOINT LeftLeg
			{
				OFFSET 2.448110 -6.726130 0.000000
				CHANNELS 3 Zrotation Yrotation Xrotation
				JOINT LeftFoot
				{
					OFFSET 2.562200 -7.039590 0.000000
					CHANNELS 3 Zrotation Yrotation Xrotation
					JOINT LeftToeBase
					{
						OFFSET 0.157640 -0.433110 2.322550
						CHANNELS 3 Zrotation Yrotation Xrotation
						End Site
						{
							OFFSET 0.000000 0.000000 0.000000
						}
					}
				}
			}
		}
	}
	JOINT RHipJoint
	{
		OFFSET 0.000000 0.000000 0.000000
		CHANNELS 3 Zrotation Yrotation Xrotation
		JOINT RightUpLeg
		{
			OFFSET -1.305520 -1.794630 0.839290
			CHANNELS 3 Zrotation Yrotation Xrotation
			JOINT RightLeg
			{
				OFFSET -2.542530 -6.985550 0.000000
				CHANNELS 3 Zrotation Yrotation Xrotation
				JOINT RightFoot
				{
					OFFSET -2.568260 -7.056230 0.000000
					CHANNELS 3 Zrotation Yrotation Xrotation
					JOINT RightToeBase
					{
						OFFSET -0.164730 -0.452590 2.363150
						CHANNELS 3 Zrotation Yrotation Xrotation
						End Site
						{
							OFFSET 0.000000 0.000000 0.000000
						}
					}
				}
			}
		}
	}
	JOINT LowerBack
	{
		OFFSET 0.000000 0.000000 0.000000
		CHANNELS 3 Zrotation Yrotation Xrotation
		JOINT Spine
		{
			OFFSET 0.028270 2.035590 -0.193380
			CHANNELS 3 Zrotation Yrotation Xrotation
			JOINT Spine1
			{
				OFFSET 0.056720 2.048850 -0.042750
				CHANNELS 3 Zrotation Yrotation Xrotation
				JOINT Neck
				{
					OFFSET 0.000000 0.000000 0.000000
					CHANNELS 3 Zrotation Yrotation Xrotation
					JOINT Neck1
					{
						OFFSET -0.054170 1.746240 0.172020
						CHANNELS 3 Zrotation Yrotation Xrotation
						JOINT Head
						{
							OFFSET 0.104070 1.761360 -0.123970
							CHANNELS 3 Zrotation Yrotation Xrotation
							End Site
							{
								OFFSET 0.000000 0.000000 0.000000
							}
						}
					}
				}
				JOINT LeftShoulder
				{
					OFFSET 0.000000 0.000000 0.000000
					CHANNELS 3 Zrotation Yrotation Xrotation
					JOINT LeftArm
					{
						OFFSET 3.362410 1.200890 -0.311210
						CHANNELS 3 Zrotation Yrotation Xrotation
						JOINT LeftForeArm
						{
							OFFSET 4.983000 -0.000000 -0.000000
							CHANNELS 3 Zrotation Yrotation Xrotation
							JOINT LeftHand
							{
								OFFSET 3.483560 -0.000000 -0.000000
								CHANNELS 3 Zrotation Yrotation Xrotation
								JOINT LeftFingerBase
								{
									OFFSET 0.000000 0.000000 0.000000
									CHANNELS 3 Zrotation Yrotation Xrotation
									JOINT LeftHandIndex1
									{
										OFFSET 0.715260 -0.000000 -0.000000
										CHANNELS 3 Zrotation Yrotation Xrotation
										End Site
										{
											OFFSET 0.000000 0.000000 0.000000
										}
									}
								}
								JOINT LThumb
								{
									OFFSET 0.000000 0.000000 0.000000
									CHANNELS 3 Zrotation Yrotation Xrotation
									End Site
									{
										OFFSET 0.000000 0.000000 0.000000
									}
								}
							}
						}
					}
				}
				JOINT RightShoulder
				{
					OFFSET 0.000000 0.000000 0.000000
					CHANNELS 3 Zrotation Yrotation Xrotation
					JOINT RightArm
					{
						OFFSET -3.136600 1.374050 -0.404650
						CHANNELS 3 Zrotation Yrotation Xrotation
						JOINT RightForeArm
						{
							OFFSET -5.241900 -0.000000 -0.000000
							CHANNELS 3 Zrotation Yrotation Xrotation
							JOINT RightHand
							{
								OFFSET -3.444170 -0.000000 -0.000000
								CHANNELS 3 Zrotation Yrotation Xrotation
								JOINT RightFingerBase
								{
									OFFSET 0.000000 0.000000 0.000000
									CHANNELS 3 Zrotation Yrotation Xrotation
									JOINT RightHandIndex1
									{
										OFFSET -0.622530 -0.000000 -0.000000
										CHANNELS 3 Zrotation Yrotation Xrotation
										End Site
										{
											OFFSET 0.000000 0.000000 0.000000
										}
									}
								}
								JOINT RThumb
								{
									OFFSET 0.000000 0.000000 0.000000
									CHANNELS 3 Zrotation Yrotation Xrotation
									End Site
									{
										OFFSET 0.000000 0.000000 0.000000
									}
								}
							}
						}
					}
				}
			}
		}
	}
}
MOTION
Frames: 11
Frame Time: 0.016667
0.727520 16.917163 0.727520 -1.814370 21.677548 -9.316777 -5.496345 34.510273 16.166577 -36.174736 -23.953886 -25.780730 -7.237891 -57.233614 74.414255 53.714322 -34.250722 -37.433188 0.000000 0.000000 0.000000 -15.721755 -8.712680 -10.820879 21.877166 -22.789211 27.671180 13.610111 -8.220811 -6.381584 0.966855 -11.043139 0.018472 0.000000 0.000000 0.000000 22.512306 1.924781 -21.845705 -34.110124 14.557451 67.245118 12.057231 -2.912666 -36.279653 27.467156 -3.950384 -4.558161 -3.628697 -0.321829 -15.479152 0.000000 0.000000 0.000000 6.278535 5.456834 12.919684 -78.314971 -10.828133 -12.358375 -144.954900 -70.302589 178.607824 5.974506 -2.705901 -0.722236 6.141090 -2.598734 -0.000000 0.000000 0.000000 0.000000 0.000000 0.000000 0.000000 -18.922331 4.321400 -25.921345 106.660851 -25.235150 51.895020 136.659991 -0.486408 21.482904 19.707701 -5.120764 11.954077 20.087442 -4.407558 -0.000000 0.000000 0.000000 0.000000 0.000000 0.000000 0.000000 
0.732338 16.945067 0.884041 2.078313 25.539319 -13.784436 -0.915996 51.022034 14.754195 -41.875088 3.437892 -19.152166 4.485898 23.616934 3.942371 -101.400766 -49.141403 66.191797 0.000000 0.000000 0.000000 -20.426645 -14.617247 -5.776835 21.986201 -19.961109 26.508067 8.944160 -10.029160 2.016851 1.099691 -8.022239 -2.825649 0.000000 0.000000 0.000000 25.120053 -4.031606 -19.916699 -35.513383 4.349313 62.897761 8.621658 -7.203351 -41.071854 18.340001 -5.772976 -4.801969 -6.469831 -1.496818 -13.502181 0.000000 0.000000 0.000000 3.100191 11.994675 16.654938 -72.563108 -1.794120 -10.267874 -148.654506 -75.789795 178.227814 8.719169 -4.837417 -0.927345 8.981270 -4.691528 0.000000 0.000000 0.000000 0.000000 0.000000 0.000000 0.000000 -13.299934 -11.887465 -28.665102 92.366628 45.125436 -7.846273 18.037639 9.476189 18.468695 -3.710203 -6.011923 10.252602 -1.975360 -7.304890 0.000000 0.000000 0.000000 0.000000 0.000000 0.000000 0.000000 
0.739351 16.974789 1.040020 7.430553 -4.003810 -11.040026 -6.989007 -5.661198 24.907751 -7.537662 -54.567119 4.362197 9.396714 33.139162 -35.164134 4.347239 -29.761006 20.400958 0.000000 0.000000 0.000000 -16.855001 -1.845180 -17.896659 26.467370 -12.146194 22.733388 -3.822413 -10.521169 19.064699 1.442117 -4.919383 -2.430408 0.000000 0.000000 0.000000 28.593165 10.999703 -17.138439 -38.572628 20.407782 60.883334 8.341037 -1.790374 -31.452469 20.909053 -1.606570 -2.314366 -5.289382 -0.251124 -23.702853 0.000000 0.000000 0.000000 3.296183 5.780240 15.623649 -77.219981 -2.913040 -8.063203 -151.476872 -78.194639 177.783459 12.230309 -8.952504 -1.176164 12.663892 -8.718019 -0.000000 0.000000 0.000000 0.000000 0.000000 0.000000 0.000000 -14.749291 -14.120640 -22.014535 83.566426 -6.987658 64.368761 77.555621 61.558374 2.830953 -5.163690 -3.737910 1.583082 -4.189056 -3.798152 -0.000000 0.000000 0.000000 0.000000 0.000000 0.000000 0.000000 
0.650658 16.935607 1.096137 5.844119 -8.609144 -8.915037 -11.122275 -9.755222 27.092918 5.251582 -50.278143 -0.323615 17.236917 29.151722 -37.682926 4.007082 -17.096646 32.495698 0.000000 0.000000 0.000000 -13.603662 -0.689117 -19.697172 28.024340 -9.926380 20.132544 -6.776181 -10.471190 23.356869 1.582239 -4.153661 -3.948307 0.000000 0.000000 0.000000 27.876808 9.595574 -12.035662 -38.368976 19.536200 60.544587 9.245720 1.739382 -38.333546 23.904977 -2.631524 -11.525103 -6.414725 -0.897664 -22.217619 0.000000 0.000000 0.000000 1.807799 10.199033 14.592262 -75.899057 -1.248341 -5.439731 -151.813855 -77.396153 177.964292 12.098930 -9.318972 -1.081094 12.510187 -9.096744 -0.000000 0.000000 0.000000 0.000000 0.000000 0.000000 0.000000 -13.801122 -15.272999 -18.586825 70.507243 -4.293884 74.883122 168.385912 84.517175 -178.505029 7.283019 -1.876881 0.849388 7.837786 -1.858122 -0.000000 0.000000 0.000000 0.000000 0.000000 0.000000 0.000000 
0.563325 16.896950 1.149940 5.478249 -11.633345 -8.104825 -11.594587 -10.352199 27.412121 6.826478 -47.689686 0.033351 22.652655 27.072098 -35.925169 6.280450 -11.780927 35.180467 0.000000 0.000000 0.000000 -11.452239 -1.077062 -19.530354 29.081585 -7.194299 17.746092 -9.963403 -10.008796 27.833756 1.739775 -3.494397 -5.091074 0.000000 0.000000 0.000000 26.113648 9.201854 -10.909708 -37.817820 18.287853 56.976363 7.306899 2.248757 -42.502764 27.661239 -3.860146 -14.006814 -8.416027 -2.084784 -19.290873 0.000000 0.000000 0.000000 2.370775 9.896705 16.676196 -74.467980 1.692500 -4.847666 -152.347301 -77.830953 178.035921 12.059769 -9.484358 -1.043004 12.461727 -9.268453 -0.000000 0.000000 0.000000 0.000000 0.000000 0.000000 0.000000 -19.188650 -12.787025 -24.721275 74.311913 -3.586470 68.326939 9.613826 88.821198 0.306473 4.156728 -1.610544 0.228046 4.495920 -1.658584 -0.000000 0.000000 0.000000 0.000000 0.000000 0.000000 0.000000 
0.422828 16.818656 1.145544 5.293612 -12.316346 -7.009638 -8.267656 -10.106871 23.739493 0.081639 -48.672021 4.158456 21.723081 28.272768 -36.644385 6.139103 -13.288408 33.781244 0.000000 0.000000 0.000000 -9.907100 -0.432305 -19.119625 27.305671 -7.250404 17.096590 -8.464919 -10.027578 26.625453 1.510427 -1.349633 -9.931299 0.000000 0.000000 0.000000 21.368528 6.704227 -8.790182 -28.713546 12.443691 52.558672 2.783935 3.452194 -46.843515 24.546257 -4.210651 -14.849995 -9.025009 -2.518779 -19.304737 0.000000 0.000000 0.000000 -2.042620 11.747510 18.810981 -69.919457 7.678314 -0.445718 -155.597087 -81.813043 179.184230 10.149030 -10.846940 -0.433285 10.365765 -10.732443 0.000000 0.000000 0.000000 0.000000 0.000000 0.000000 0.000000 -15.354973 -10.648621 -25.137251 79.569249 6.613276 48.636812 166.646442 89.231778 -179.081590 2.666284 0.692689 0.552555 3.043599 0.852630 0.000000 0.000000 0.000000 0.000000 0.000000 0.000000 0.000000 
0.283947 16.740016 1.138348 3.716796 -13.332370 -5.235258 -3.771771 -9.586927 19.658540 -5.662428 -49.137907 7.964204 20.760891 29.205776 -37.506750 5.717728 -14.477458 33.006794 0.000000 0.000000 0.000000 -7.323397 0.762145 -18.996201 25.671515 -7.511504 16.170946 -6.466793 -10.209046 25.028112 1.277951 0.608157 -14.729581 0.000000 0.000000 0.000000 13.047916 3.091519 -5.439244 -15.662800 6.089041 47.755775 3.403258 4.089249 -46.212133 24.082794 -4.064602 -20.335159 -8.227401 -2.484279 -18.601712 0.000000 0.000000 0.000000 -9.379390 20.615995 16.411158 -66.705904 9.544385 0.859173 -156.478002 -82.120102 -179.768556 4.660387 -7.316555 0.114551 4.671613 -7.311071 0.000000 0.000000 0.000000 0.000000 0.000000 0.000000 0.000000 -7.676445 -18.074644 -11.911042 82.461034 19.817292 39.147020 138.215921 83.591225 -178.892348 -0.652197 0.280374 0.636501 -0.329272 0.456908 -0.000000 0.000000 0.000000 0.000000 0.000000 0.000000 0.000000 
0.391875 16.838832 1.381126 4.813400 -15.407069 -5.619767 -6.025831 -8.874375 21.222975 -4.476567 -49.674376 6.772237 19.507193 32.914556 -38.128872 5.998696 -15.936069 30.510803 0.000000 0.000000 0.000000 -7.658042 -1.747869 -17.109267 27.336675 -3.892192 13.634425 -10.046775 -8.895220 29.673986 1.277960 0.238594 -11.380124 0.000000 0.000000 0.000000 16.476153 4.475560 -8.140976 -19.534582 8.464144 52.155006 3.373843 3.823498 -45.396235 21.633699 -3.200351 -18.560133 -6.837732 -1.763574 -21.128243 0.000000 0.000000 0.000000 -8.742549 19.948014 15.790386 -67.424879 8.486843 0.928418 -156.446763 -82.512114 -179.784231 4.936174 -7.642923 0.106349 4.951802 -7.634939 0.000000 0.000000 0.000000 0.000000 0.000000 0.000000 0.000000 -6.215440 -19.585036 -11.209105 81.917004 20.842017 36.640458 137.878471 81.644459 -178.858744 -1.075113 0.170272 0.656448 -0.738215 0.353800 -0.000000 0.000000 0.000000 0.000000 0.000000 0.000000 0.000000 
0.504902 16.940547 1.627398 5.809956 -17.225732 -5.880637 -8.341562 -8.357375 22.681341 -2.960828 -50.117305 5.350182 18.015175 36.606286 -38.855857 6.093747 -17.532312 27.848930 0.000000 0.000000 0.000000 -8.083716 -3.892121 -15.234221 28.759079 -0.404278 11.213603 -13.007618 -7.540253 33.634828 1.373759 -0.564092 -7.470068 0.000000 0.000000 0.000000 19.997862 6.026484 -10.493160 -22.872289 10.693978 55.387813 2.838437 3.442622 -44.058398 18.871825 -2.108509 -16.392728 -5.435287 -0.902664 -23.799465 0.000000 0.000000 0.000000 -8.039797 18.862442 15.467701 -68.123338 7.493097 0.929198 -156.357946 -82.952133 -179.803974 5.241885 -7.984847 0.096043 5.262698 -7.973893 0.000000 0.000000 0.000000 0.000000 0.000000 0.000000 0.000000 -4.957392 -20.778680 -10.790678 80.957512 21.303715 34.597033 138.422908 79.895252 -178.810802 -1.414279 0.162488 0.685410 -1.054364 0.355986 -0.000000 0.000000 0.000000 0.000000 0.000000 0.000000 0.000000 
0.556499 16.996981 1.808977 6.288155 -18.029877 -5.777908 -8.889413 -8.162541 22.691151 -3.821511 -50.684252 5.565037 16.345376 39.449048 -39.740010 5.744322 -19.403601 25.346498 0.000000 0.000000 0.000000 -8.040594 -4.815822 -14.305727 29.377725 1.683318 9.697592 -14.806034 -6.935600 36.292974 1.565326 -1.530245 -4.784529 0.000000 0.000000 0.000000 20.942688 6.512556 -11.000775 -23.897507 11.334400 55.627173 2.590608 3.410109 -43.564568 18.179418 -1.812953 -15.768243 -5.211779 -0.707611 -24.568517 0.000000 0.000000 0.000000 -7.962743 18.641149 15.421642 -68.164736 7.235051 0.832879 -156.223470 -82.969417 -179.813690 5.340829 -8.057619 0.091037 5.363382 -8.045662 0.000000 0.000000 0.000000 0.000000 0.000000 0.000000 0.000000 -4.612943 -21.078861 -10.646145 80.617657 21.336812 34.205393 138.638238 79.461282 -178.785901 -1.505597 0.173107 0.700028 -1.135547 0.370898 -0.000000 0.000000 0.000000 0.000000 0.000000 0.000000 0.000000 
0.606095 17.051433 1.987114 6.733583 -18.724830 -5.661136 -9.344861 -7.954730 22.622065 -4.789393 -51.204410 5.804352 14.682943 42.092851 -40.534859 5.365887 -21.383416 22.736676 0.000000 0.000000 0.000000 -8.019185 -5.616486 -13.400794 29.861970 3.639492 8.267082 -16.342952 -6.376619 38.648193 1.780734 -2.615118 -1.993740 0.000000 0.000000 0.000000 21.801026 6.940352 -11.461480 -24.796600 11.879245 55.756881 2.315037 3.368764 -43.070883 17.518610 -1.521785 -15.166544 -5.018483 -0.523445 -25.310526 0.000000 0.000000 0.000000 -7.913431 18.422586 15.392813 -68.181758 6.997985 0.726805 -156.082488 -82.976724 -179.823406 5.436097 -8.123523 0.086037 5.460335 -8.110587 0.000000 0.000000 0.000000 0.000000 0.000000 0.000000 0.000000 -4.298241 -21.353042 -10.516188 80.277489 21.340478 33.875241 138.865103 79.069929 -178.760291 -1.589713 0.188729 0.715061 -1.209219 0.390827 -0.000000 0.000000 0.000000 0.000000 0.000000 0.000000 0.000000 
